<svg width="48" height="48" viewBox="0 0 48 48" fill="none" xmlns="http://www.w3.org/2000/svg">
<path d="M24 28L14 18L3 43.5L29 33L26.5 30.5" stroke="#080F0F" stroke-width="1.6" stroke-linecap="round" stroke-linejoin="round"/>
<path d="M20 36.5C20.1667 33 18.8 25.4 12 23" stroke="#080F0F" stroke-width="1.6" stroke-linecap="round" stroke-linejoin="round"/>
<path d="M14 38.4999C14.1268 35.837 13.366 30.8008 10 27.4871" stroke="#080F0F" stroke-width="1.6" stroke-linecap="round" stroke-linejoin="round"/>
<path d="M8.00011 41.0129C8.07662 39.4061 7.82997 36.9352 6.88281 34.5" stroke="#080F0F" stroke-width="1.6" stroke-linecap="round" stroke-linejoin="round"/>
<path d="M25 24.4999C25 24.4999 31 18.5 32 17.4999C34.112 15.3878 37.966 16.437 39.5 18.9999C40.7075 21.0174 40.7285 23.406 39 24.9999C37.1284 26.7258 33.5 26.5 32.5 24.4999C31.6716 22.8431 31.8786 20.707 34 19.9999C35.5 19.5 37 20 37.5 21C38 22 38 23 37 23.5" stroke="#080F0F" stroke-width="1.6" stroke-linecap="round" stroke-linejoin="round"/>
<path d="M23.0353 22C23.0353 22 24.3716 20.7222 26 19.1653M24.261 7.93602C24.8738 6.76402 26.0996 6.76402 27.3253 7.35002C28.551 7.93602 29.1639 9.69402 28.5511 11.452C27.6845 13.9383 25.0662 14.1809 23.0353 13.21C20.5837 12.038 20.3069 7.78555 22.4224 5.59202C24.3762 3.56619 27.3039 3.59081 29.7768 5.00602C32.9183 6.80384 34.2044 11.3207 31.6154 13.796C31.1755 14.2166 29.9464 15.3919 28.5511 16.726" stroke="#080F0F" stroke-width="1.6" stroke-linecap="round" stroke-linejoin="round"/>
<path d="M38.7144 6.04028L41.0168 7.68619L43.6568 6.66645L42.803 9.36473L44.5886 11.5605L41.7585 11.5822L40.2221 13.959L39.3269 11.2741L36.5916 10.5473L38.8684 8.86626L38.7144 6.04028Z" stroke="#080F0F" stroke-width="1.6" stroke-linecap="round" stroke-linejoin="round"/>
<path d="M11.7144 7.04028L14.0168 8.68619L16.6568 7.66645L15.803 10.3647L17.5886 12.5605L14.7585 12.5822L13.2221 14.959L12.3269 12.2741L9.5916 11.5473L11.8684 9.86626L11.7144 7.04028Z" stroke="#080F0F" stroke-width="1.6" stroke-linecap="round" stroke-linejoin="round"/>
<path d="M35.7144 30.0403L38.0168 31.6862L40.6568 30.6664L39.803 33.3647L41.5886 35.5605L38.7585 35.5822L37.2221 37.959L36.3269 35.2741L33.5916 34.5473L35.8684 32.8663L35.7144 30.0403Z" stroke="#080F0F" stroke-width="1.6" stroke-linecap="round" stroke-linejoin="round"/>
</svg>
