<svg width="42" height="45" viewBox="0 0 42 45" fill="none" xmlns="http://www.w3.org/2000/svg">
<path d="M16.999 32C17.5513 32 17.999 31.5523 17.999 31C17.999 30.4477 17.5513 30 16.999 30C16.4467 30 15.999 30.4477 15.999 31C15.999 31.5523 16.4467 32 16.999 32Z" fill="#080F0F"/>
<path d="M18.999 15C18.999 15.5523 18.5513 16 17.999 16C17.4467 16 16.999 15.5523 16.999 15C16.999 14.4477 17.4467 14 17.999 14C18.5513 14 18.999 14.4477 18.999 15Z" fill="#080F0F"/>
<path fill-rule="evenodd" clip-rule="evenodd" d="M26.1186 24.0338C24.9269 22.8803 23.0303 22.8958 21.8576 24.0685C20.6712 25.2549 20.6712 27.1785 21.8576 28.3649L26.3676 32.8749C26.5292 33.0365 26.7429 33.1145 26.9547 33.1089C27.1676 33.1155 27.3827 33.0375 27.5452 32.875L32.0665 28.3537C33.2467 27.1735 33.2467 25.2601 32.0665 24.0799C30.8879 22.9013 28.9776 22.8995 27.7968 24.0758L26.9912 24.8784L26.1186 24.0338ZM30.9351 27.2223L26.9564 31.201L22.9889 27.2335C22.4274 26.6719 22.4274 25.7614 22.9889 25.1999C23.544 24.6448 24.4418 24.6375 25.0058 25.1834L26.4138 26.5462C26.4197 26.5525 26.4257 26.5587 26.4318 26.5649C26.5885 26.7222 26.7945 26.8007 27.0003 26.8003C27.2093 26.8002 27.418 26.7187 27.5749 26.5567C27.581 26.5504 27.587 26.544 27.5928 26.5375L28.926 25.2094C29.4817 24.6559 30.3806 24.6567 30.9351 25.2113C31.4905 25.7666 31.4905 26.667 30.9351 27.2223Z" fill="#080F0F"/>
<path fill-rule="evenodd" clip-rule="evenodd" d="M20.5911 0.311872C20.8427 0.162644 21.1557 0.162644 21.4073 0.311872L33.9073 7.72567C34.2873 7.95105 34.4127 8.44183 34.1873 8.82185C33.9619 9.20186 33.4711 9.32721 33.0911 9.10182L20.9992 1.93008L1.79922 13.3177V43.2H7.99726C7.24937 41.3084 6.75258 38.5938 6.88726 35.6509C7.03685 32.3824 7.96854 28.764 10.2755 25.6321C10.5604 24.7545 11.2961 23.3666 12.6119 22.3661L11.4569 22.5099C11.1483 22.5483 10.8453 22.4044 10.6802 22.1409L10.6695 22.1238L10.6404 22.077C10.6152 22.0364 10.5788 21.9775 10.5333 21.9032C10.4424 21.7548 10.3149 21.5448 10.1682 21.2975C9.87611 20.8051 9.50234 20.1558 9.18851 19.5473C9.0158 19.2124 8.85459 18.8771 8.73454 18.5805C8.63008 18.3223 8.5042 17.9723 8.50391 17.66C8.5035 17.2186 8.55435 16.7424 8.82983 16.3111C9.10558 15.8794 9.52864 15.6129 9.99992 15.4057C10.2397 15.3002 10.7251 15.065 11.2951 14.7829C11.9071 14.48 12.5952 14.1336 13.1311 13.8625C13.3944 13.7294 13.6206 13.6146 13.7825 13.5323L13.8382 13.3955C13.9422 13.1404 14.0863 12.7895 14.2465 12.4064C14.5632 11.6494 14.9551 10.7368 15.224 10.2011C15.4042 9.84195 15.6464 9.54502 15.9808 9.31061C16.3015 9.08574 16.6705 8.94436 17.0654 8.83708C17.6058 8.69022 18.3279 8.57683 19.2369 8.43408C19.5922 8.37828 19.9763 8.31797 20.3891 8.24944C21.3591 8.08843 22.638 8.32862 23.981 8.84893C25.3494 9.37905 26.8754 10.235 28.3712 11.4152C28.7506 11.7145 29.1288 12.0353 29.5024 12.3776C29.529 12.399 29.5543 12.4222 29.5781 12.4472C32.1229 14.8018 34.45 18.1564 35.549 22.5355C36.7953 27.502 36.9672 32.3156 36.678 36.1883C36.4565 39.153 35.9603 41.6203 35.4403 43.2H40.1992V13.3177L38.0911 12.0673C37.7111 11.842 37.5858 11.3512 37.8111 10.9712C38.0365 10.5911 38.5273 10.4658 38.9073 10.6912L41.4073 12.1739C41.6503 12.318 41.7992 12.5796 41.7992 12.862V44C41.7992 44.4418 41.441 44.7999 40.9992 44.7999H34.2762C34.2677 44.8001 34.2592 44.8001 34.2507 44.7999H0.999219C0.557391 44.7999 0.199219 44.4418 0.199219 44V12.862C0.199219 12.5796 0.348172 12.318 0.591117 12.1739L20.5911 0.311872ZM27.2244 43.2H9.74043C9.73445 43.1852 9.72801 43.1706 9.72109 43.1561C8.95332 41.5437 8.34467 38.8032 8.48559 35.7241C8.62555 32.6658 9.50176 29.3425 11.6198 26.5054C11.6864 26.4237 11.7379 26.3275 11.7686 26.2197C12.0184 25.3454 12.9416 23.6833 14.6994 23.0245V25.5C14.6994 25.8607 14.9409 26.1768 15.2889 26.2718C16.1126 26.4964 17.3749 27.0474 18.4147 27.9435C19.4448 28.8313 20.1994 30.0024 20.1994 31.5C20.1994 31.7121 20.2837 31.9156 20.4337 32.0656C20.8891 32.521 21.0475 33.3909 20.6434 34.3C20.2571 35.1692 19.3682 35.9963 17.8863 36.208C16.8966 36.3494 16.3152 36.2271 15.8936 36.0232C15.4387 35.8032 15.086 35.4551 14.5651 34.9343C14.2527 34.6218 13.7462 34.6218 13.4337 34.9343C13.1213 35.2467 13.1213 35.7532 13.4337 36.0656L13.4955 36.1275C13.9595 36.5922 14.4864 37.12 15.197 37.4636C15.9727 37.8387 16.8913 37.9664 18.1126 37.7919C19.2697 37.6266 20.2109 37.1705 20.919 36.5511L21.9335 37.5656C22.0411 37.6732 22.1772 37.7479 22.3257 37.7809C26.3631 38.6781 27.1992 41.7661 27.1992 43C27.1992 43.069 27.208 43.136 27.2244 43.2ZM33.7424 43.2C34.239 41.9301 34.8342 39.3912 35.0824 36.0691C35.3615 32.3327 35.1941 27.6947 33.9971 22.9249C33.3063 20.172 32.0899 17.8589 30.6428 15.9778C30.689 16.7516 30.5988 17.5898 30.2149 18.3577C29.6668 19.454 29.078 20.1576 28.2866 20.5183C27.5443 20.8567 26.7387 20.8274 25.9992 20.8004L25.9703 20.7994C25.1552 20.7697 24.4823 20.5136 23.9576 20.0354C23.4501 19.5728 23.1466 18.9615 22.944 18.3355C22.7415 17.7099 22.6201 17.0053 22.5191 16.3036C22.4818 16.0446 22.4476 15.7888 22.4134 15.5333C22.3516 15.071 22.2898 14.6088 22.2103 14.1314C21.9783 12.7397 21.5163 11.7059 21.1209 11.028C20.9229 10.6887 20.7417 10.4385 20.6143 10.2777C20.5507 10.1973 20.5007 10.1394 20.4689 10.104C20.4531 10.0863 20.4418 10.0742 20.4357 10.0678L20.4321 10.064L20.4311 10.063C20.3777 10.009 20.3333 9.9491 20.2984 9.88575C19.9597 9.94075 19.6534 9.98885 19.3751 10.0326C18.5247 10.1661 17.9357 10.2586 17.4849 10.3811C17.1798 10.464 17.008 10.5445 16.8993 10.6207C16.8041 10.6874 16.7282 10.7708 16.654 10.9188C16.4138 11.3973 16.0423 12.2595 15.7226 13.0238C15.5647 13.4013 15.4225 13.7477 15.3197 13.9997C15.2683 14.1256 15.2269 14.2279 15.1983 14.2985L15.1544 14.4073C15.0824 14.5868 14.9476 14.7344 14.7754 14.8223L14.5158 14.9544C14.3526 15.0373 14.1222 15.1543 13.8533 15.2903C13.4806 15.4788 13.0332 15.7043 12.5878 15.9268C12.6998 16.507 12.7357 17.2042 12.5626 17.8668C12.4338 18.3597 12.1822 18.8572 11.7376 19.2528C11.5447 19.4246 11.3256 19.568 11.0813 19.682C11.242 19.9669 11.4019 20.2411 11.5443 20.4812C11.6271 20.6208 11.7036 20.7482 11.7704 20.8585L19.0408 19.9531L19.8556 18.7356C20.1013 18.3684 20.5982 18.27 20.9654 18.5157C21.3326 18.7614 21.431 19.2583 21.1853 19.6255L20.1673 21.1468C20.0382 21.3397 19.8316 21.467 19.6013 21.4957L16.2941 21.9075C16.2976 21.9381 16.2994 21.9689 16.2994 22V24.9142C17.2492 25.2519 18.4333 25.8474 19.4592 26.7315C20.6575 27.7642 21.6909 29.2406 21.7914 31.1879C22.6198 32.2304 22.6551 33.7132 22.1055 34.9499C22.0528 35.0684 21.9946 35.1854 21.931 35.3004L22.9036 36.273C27.6716 37.4441 28.7992 41.2615 28.7992 43C28.7992 43.069 28.7905 43.136 28.774 43.2H33.7424ZM23.403 10.3409C23.0331 10.1976 22.6878 10.0858 22.3705 10.002C22.4139 10.0718 22.4582 10.1451 22.5029 10.2218C22.9824 11.0439 23.5204 12.2601 23.7885 13.8684C23.8718 14.368 23.9403 14.8793 24.0046 15.3598C24.0379 15.6086 24.0702 15.8492 24.1027 16.0756C24.202 16.7653 24.3085 17.3553 24.4663 17.8429C24.6239 18.3299 24.813 18.6502 25.0354 18.8528C25.2405 19.0398 25.5345 19.1825 26.0285 19.2004C26.8543 19.2304 27.2746 19.2213 27.623 19.0625C27.932 18.9216 28.3066 18.5966 28.7838 17.6421C29.1648 16.8802 29.098 15.8676 28.8587 14.9284C28.7437 14.4769 28.5986 14.0807 28.4819 13.7972C28.4288 13.6681 28.3821 13.5638 28.3478 13.4901C28.0278 13.2001 27.7045 12.9272 27.3801 12.6713C25.9998 11.5822 24.6116 10.8091 23.403 10.3409ZM10.6739 18.0576C10.5926 18.13 10.4849 18.2014 10.3393 18.2605C10.2935 18.1605 10.2526 18.0666 10.2177 17.9803C10.1707 17.8642 10.1389 17.7726 10.1197 17.705C10.1096 17.6692 10.1055 17.6485 10.1039 17.6402C10.1053 17.3159 10.1508 17.2154 10.1782 17.1724C10.2059 17.129 10.2923 17.025 10.644 16.8703C10.7542 16.8218 10.9018 16.7532 11.0747 16.6707C11.0931 16.9423 11.0786 17.2171 11.0145 17.4623C10.9478 17.7177 10.835 17.9143 10.6739 18.0576Z" fill="#080F0F"/>
</svg>
