<svg width="48" height="48" viewBox="0 0 48 48" fill="none" xmlns="http://www.w3.org/2000/svg">
<path d="M27.5 4V9.5H33M27.5 4L33 9.5M27.5 4H4V44H33V39M33 9.5V24M8 10H21M8 22H21M8 16H28M24 22H28M8 34H21M8 40H21M8 28H28M39.3223 21.9763L42.3223 24.9763M28.8224 38.5542L43.3876 23.989C44.3061 23.0705 44.3061 21.5814 43.3876 20.663C42.4692 19.7445 40.9801 19.7445 40.0616 20.663L25.4964 35.2282L24.6628 39.3878L28.8224 38.5542Z" stroke="#080F0F" stroke-width="1.6" stroke-linecap="round" stroke-linejoin="round"/>
</svg>
